#!OML:ASF H:\Dans Jumps\Project 1\Capture day 1\Session 1\subject.ASF
:FULLY-SPECIFIED
:DEGREES
331
root 0.355871 16.8433 -2.73308 8.5863 -1.15082 -1.09883
lowerback 6.00888 -1.18682 -1.05731
upperback 5.73463 -1.6582 2.49712
thorax 2.65998 -0.919796 3.22989
lowerneck -12.6199 1.02999 -0.353727
upperneck 31.3935 1.81407 -0.891172
head 12.4839 0.631673 -0.0241388
rclavicle 1.78906e-015 -7.55382e-015
rhumerus -17.2255 -13.5776 -82.059
rradius 22.7441
rwrist 32.8106
rhand -23.8726 -24.2161
rfingers 7.12502
rthumb 2.6004 -54.18
lclavicle 1.78906e-015 -7.55382e-015
lhumerus -12.1649 -6.91275 91.9291
lradius 16.3826
lwrist 5.05565
lhand -29.4262 -8.41426
lfingers 7.12502
lthumb -2.76336 21.5476
rfemur -31.2556 -3.31893 20.4782
rtibia 47.377
rfoot -20.8869 -9.16476
rtoes 4.63841
lfemur -32.0337 6.84324 -17.6633
ltibia 44.242
lfoot -19.5301 0.720766
ltoes -2.42524
332
root 0.35913 16.8484 -2.72792 8.59426 -1.0646 -1.10169
lowerback 5.96756 -1.18379 -1.04014
upperback 5.75187 -1.65383 2.49713
thorax 2.70011 -0.917541 3.21893
lowerneck -12.6441 1.00427 -0.3758
upperneck 31.3229 1.78017 -0.88204
head 12.4596 0.616165 -0.0214344
rclavicle 2.127e-014 -2.82274e-014
rhumerus -17.2275 -13.4964 -82.0895
rradius 22.7927
rwrist 32.7041
rhand -23.7357 -24.1759
rfingers 7.12502
rthumb 2.73261 -54.1381
lclavicle 2.127e-014 -2.82274e-014
lhumerus -12.4034 -7.14598 91.9433
lradius 16.3676
lwrist 5.06295
lhand -29.3587 -8.35291
lfingers 7.12502
lthumb -2.69817 21.6098
rfemur -31.1837 -3.35117 20.4685
rtibia 47.2864
rfoot -20.8639 -9.20216
rtoes 4.66654
lfemur -31.989 6.81589 -17.6721
ltibia 44.1525
lfoot -19.5201 0.633686
ltoes -2.30452
333
root 0.362392 16.8532 -2.72298 8.60086 -0.980093 -1.10454
lowerback 5.92961 -1.17976 -1.02278
upperback 5.76899 -1.64811 2.4962
thorax 2.73813 -0.914553 3.20693
lowerneck -12.6708 0.97875 -0.399795
upperneck 31.2573 1.74611 -0.869484
head 12.4378 0.600734 -0.0171001
rclavicle -1.31198e-014 -4.77083e-015
rhumerus -17.2369 -13.4252 -82.118
rradius 22.8367
rwrist 32.6053
rhand -23.5953 -24.1114
rfingers 7.12502
rthumb 2.86824 -54.0718
lclavicle -1.31198e-014 -4.77083e-015
lhumerus -12.6306 -7.36065 91.9548
lradius 16.3508
lwrist 5.06683
lhand -29.2881 -8.24607
lfingers 7.12502
lthumb -2.62999 21.7175
rfemur -31.114 -3.3853 20.4593
rtibia 47.1994
rfoot -20.8409 -9.23764
rtoes 4.68532
lfemur -31.9467 6.79692 -17.6822
ltibia 44.067
lfoot -19.5109 0.545437
ltoes -2.20542
334
root 0.365613 16.8577 -2.71834 8.60462 -0.900326 -1.10796
lowerback 5.89561 -1.17338 -1.00518
upperback 5.78675 -1.63924 2.4935
thorax 2.77434 -0.909922 3.19296
lowerneck -12.7008 0.95429 -0.41915
upperneck 31.1973 1.71262 -0.857309
head 12.4191 0.585983 -0.0136189
rclavicle -7.55382e-015 1.23246e-014
rhumerus -17.255 -13.364 -82.1465
rradius 22.8803
rwrist 32.5121
rhand -23.4603 -24.0269
rfingers 7.12502
rthumb 2.99855 -53.9856
lclavicle -7.55382e-015 1.23246e-014
lhumerus -12.8531 -7.55468 91.9624
lradius 16.3422
lwrist 5.06624
lhand -29.1468 -8.00709
lfingers 7.12502
lthumb -2.49352 21.9581
rfemur -31.0467 -3.41791 20.4513
rtibia 47.1183
rfoot -20.8182 -9.27339
rtoes 4.6947
lfemur -31.9052 6.78805 -17.6926
ltibia 43.9866
lfoot -19.5022 0.454927
ltoes -2.12483
335
root 0.368729 16.8617 -2.71396 8.60572 -0.826609 -1.10773
lowerback 5.86461 -1.16525 -0.994632
upperback 5.80413 -1.62826 2.48967
thorax 2.80857 -0.904435 3.18182
lowerneck -12.7319 0.93321 -0.433138
upperneck 31.1431 1.68396 -0.849103
head 12.4032 0.573418 -0.0118956
rclavicle 2.5842e-015 3.18055e-015
rhumerus -17.2828 -13.299 -82.1751
rradius 22.926
rwrist 32.4136
rhand -23.3259 -23.9384
rfingers 7.12502
rthumb 3.12839 -53.8952
lclavicle 2.5842e-015 3.18055e-015
lhumerus -13.0742 -7.72969 91.9681
lradius 16.3395
lwrist 5.0714
lhand -28.9509 -7.67587
lfingers 7.12502
lthumb -2.30431 22.2914
rfemur -30.9827 -3.4477 20.4396
rtibia 47.0449
rfoot -20.7976 -9.30964
rtoes 4.69501
lfemur -31.8645 6.78921 -17.7079
ltibia 43.9115
lfoot -19.4947 0.364042
ltoes -2.05273
336
root 0.371778 16.8653 -2.70987 8.60345 -0.758839 -1.10008
lowerback 5.83621 -1.15567 -0.993998
upperback 5.82088 -1.61567 2.48378
thorax 2.84083 -0.898421 3.17416
lowerneck -12.7561 0.915618 -0.444615
upperneck 31.091 1.66055 -0.843831
head 12.3868 0.563093 -0.0110249
rclavicle -7.95139e-015 2.82274e-014
rhumerus -17.3222 -13.223 -82.2044
rradius 22.9775
rwrist 32.3063
rhand -23.1897 -23.8679
rfingers 7.12502
rthumb 3.25989 -53.8227
lclavicle -7.95139e-015 2.82274e-014
lhumerus -13.2973 -7.87922 91.9721
lradius 16.3448
lwrist 5.07862
lhand -28.7329 -7.32249
lfingers 7.12502
lthumb -2.09373 22.647
rfemur -30.9215 -3.47568 20.4197
rtibia 46.9804
rfoot -20.7803 -9.34553
rtoes 4.69132
lfemur -31.8237 6.79728 -17.7319
ltibia 43.8423
lfoot -19.489 0.273419
ltoes -1.98448
337
root 0.374767 16.8684 -2.70608 8.6002 -0.696728 -1.08895
lowerback 5.808 -1.14474 -0.999014
upperback 5.83583 -1.60142 2.47702
thorax 2.87115 -0.891727 3.16876
lowerneck -12.7697 0.900811 -0.454837
upperneck 31.0388 1.64148 -0.841069
head 12.3681 0.554555 -0.0107747
rclavicle -9.34288e-015 2.38542e-015
rhumerus -17.3702 -13.1519 -82.232
rradius 23.027
rwrist 32.2047
rhand -23.0498 -23.8175
rfingers 7.12502
rthumb 3.39499 -53.7702
lclavicle -9.34288e-015 2.38542e-015
lhumerus -13.522 -8.01297 91.9759
lradius 16.354
lwrist 5.09734
lhand -28.4874 -6.95924
lfingers 7.12502
lthumb -1.85662 23.0124
rfemur -30.8651 -3.50051 20.3959
rtibia 46.924
rfoot -20.7665 -9.38058
rtoes 4.68872
lfemur -31.7853 6.81073 -17.7599
ltibia 43.7793
lfoot -19.4856 0.185352
ltoes -1.91604
338
root 0.377716 16.8711 -2.70255 8.59551 -0.637522 -1.07931
lowerback 5.78185 -1.1332 -1.00433
upperback 5.8486 -1.58634 2.47139
thorax 2.89807 -0.884598 3.16476
lowerneck -12.7732 0.888348 -0.466981
upperneck 30.9883 1.62604 -0.837846
head 12.3481 0.54748 -0.00955901
rclavicle 2.26615e-014 -1.39149e-014
rhumerus -17.4242 -13.0955 -82.255
rradius 23.0663
rwrist 32.1218
rhand -22.9161 -23.7837
rfingers 7.12502
rthumb 3.52415 -53.7343
lclavicle 2.26615e-014 -1.39149e-014
lhumerus -13.7465 -8.11948 91.9791
lradius 16.3654
lwrist 5.10957
lhand -28.2611 -6.65182
lfingers 7.12502
lthumb -1.63813 23.3216
rfemur -30.8115 -3.52351 20.3737
rtibia 46.874
rfoot -20.754 -9.4157
rtoes 4.67945
lfemur -31.7492 6.82605 -17.7859
ltibia 43.7237
lfoot -19.4854 0.0997806
ltoes -1.84099
